# xmcd
#
# Track frame offsets: 
#        150
#        15349
#        34836
#        51621
#        72129
#        85710
#        104301
#        124434
#        139695
#        154374
#        176592
#        194669
#        211659
#        226998
#        241375
#        259701
#
# Disc length: 3650 seconds
#
# Revision: 6
# Processed by: cddbd v1.5.2PL0 Copyright (c) Steve Scherf et al.
# Submitted via: ExactAudioCopy v0.95b3
#
DISCID=df0e4010
DTITLE=Milton Nascimento - Crooner
DYEAR=1999
DGENRE=Latin
TTITLE0=Aqueles Olhos Verdes
TTITLE1=Certas Coisas
TTITLE2=Only You
TTITLE3=Mas que Nada
TTITLE4=Frenesi
TTITLE5=Nao Sei Dancar
TTITLE6=Resposta
TTITLE7=Beat It
TTITLE8=Se Alguém Telefonar
TTITLE9=Rosa Maria
TTITLE10=Castigo
TTITLE11=Ooh Child
TTITLE12=Lagrima Flor
TTITLE13=Barulho de Trem
TTITLE14=Lamento no Morro
TTITLE15=O Gato da Madame - Edmundo - Cuman
EXTD=
EXTT0=
EXTT1=
EXTT2=
EXTT3=
EXTT4=
EXTT5=
EXTT6=
EXTT7=
EXTT8=
EXTT9=
EXTT10=
EXTT11=
EXTT12=
EXTT13=
EXTT14=
EXTT15=
PLAYORDER=
